<svg xmlns="http://www.w3.org/2000/svg" xmlns:xlink="http://www.w3.org/1999/xlink" width="500" zoomAndPan="magnify" viewBox="0 0 375 374.999991" height="500" preserveAspectRatio="xMidYMid meet" version="1.0"><defs><clipPath id="d0b1fffb14"><path d="M 76 45.695312 L 298 45.695312 L 298 329.195312 L 76 329.195312 Z M 76 45.695312 " clip-rule="nonzero"/></clipPath></defs><g clip-path="url(#d0b1fffb14)"><path fill="#ffffff" d="M 178.542969 45.695312 L 178.542969 122.691406 C 173.363281 120.585938 162.1875 120.328125 156.679688 120.328125 C 115.242188 120.328125 76.886719 139.824219 76.886719 194.960938 C 76.886719 260.9375 128.839844 269.59375 163.617188 269.59375 C 177.351562 269.59375 208.398438 268.238281 223.324219 263.910156 L 223.324219 45.695312 Z M 253.175781 45.695312 L 253.175781 90.476562 L 297.957031 90.476562 L 297.957031 45.695312 Z M 253.175781 120.328125 L 253.175781 250.207031 C 253.175781 272.835938 239.414062 296.390625 208.398438 309.914062 L 251.078125 329.242188 C 294.453125 314.316406 297.957031 265.132812 297.957031 250.207031 L 297.957031 120.328125 Z M 163.179688 158.402344 C 167.957031 158.402344 173.320312 159.277344 178.542969 160.472656 L 178.542969 230.675781 C 173.320312 231.867188 167.957031 232.773438 163.179688 232.773438 C 143.625 232.773438 124.667969 226.605469 124.667969 194.960938 C 124.667969 163.316406 143.625 158.402344 163.179688 158.402344 Z M 163.179688 158.402344 " fill-opacity="1" fill-rule="nonzero"/></g></svg>