<svg xmlns="http://www.w3.org/2000/svg" xmlns:xlink="http://www.w3.org/1999/xlink" width="500" zoomAndPan="magnify" viewBox="0 0 375 374.999991" height="500" preserveAspectRatio="xMidYMid meet" version="1.0"><defs><clipPath id="efe7ab9088"><path d="M 37.5 37.5 L 337.5 37.5 L 337.5 337.5 L 37.5 337.5 Z M 37.5 37.5 " clip-rule="nonzero"/></clipPath></defs><g clip-path="url(#efe7ab9088)"><path fill="#007acc" d="M 37.5 337.5 L 337.5 337.5 L 337.5 37.5 L 37.5 37.5 Z M 37.5 337.5 " fill-opacity="1" fill-rule="nonzero"/></g><path fill="#ffffff" d="M 103.828125 188.484375 L 103.734375 200.777344 L 142.78125 200.777344 L 142.78125 311.730469 L 170.402344 311.730469 L 170.402344 200.777344 L 209.449219 200.777344 L 209.449219 188.730469 C 209.449219 182.0625 209.304688 176.484375 209.117188 176.34375 C 208.972656 176.15625 185.210938 176.0625 156.398438 176.109375 L 103.96875 176.25 Z M 103.828125 188.484375 " fill-opacity="1" fill-rule="nonzero"/><path fill="#ffffff" d="M 279.574219 175.910156 C 287.191406 177.808594 293.003906 181.195312 298.335938 186.714844 C 301.089844 189.667969 305.191406 195.046875 305.519531 196.335938 C 305.613281 196.722656 292.570312 205.476562 284.660156 210.386719 C 284.378906 210.574219 283.242188 209.332031 281.953125 207.433594 C 278.097656 201.808594 274.042969 199.382812 267.855469 198.960938 C 258.761719 198.339844 252.902344 203.097656 252.949219 211.054688 C 252.949219 213.386719 253.289062 214.769531 254.238281 216.667969 C 256.242188 220.816406 259.957031 223.289062 271.617188 228.339844 C 293.097656 237.574219 302.285156 243.667969 308.003906 252.339844 C 314.378906 262.007812 315.808594 277.429688 311.472656 288.902344 C 306.714844 301.382812 294.902344 309.855469 278.285156 312.667969 C 273.140625 313.570312 260.953125 313.429688 255.421875 312.433594 C 243.375 310.289062 231.949219 304.335938 224.90625 296.53125 C 222.140625 293.484375 216.761719 285.527344 217.089844 284.953125 C 217.242188 284.765625 218.472656 284.003906 219.855469 283.195312 C 221.191406 282.433594 226.242188 279.527344 231 276.761719 L 239.613281 271.769531 L 241.429688 274.429688 C 243.949219 278.285156 249.480469 283.570312 252.808594 285.339844 C 262.382812 290.378906 275.519531 289.664062 282 283.863281 C 284.765625 281.332031 285.902344 278.71875 285.902344 274.863281 C 285.902344 271.382812 285.480469 269.859375 283.664062 267.246094 C 281.332031 263.90625 276.574219 261.09375 263.050781 255.246094 C 247.570312 248.578125 240.902344 244.429688 234.808594 237.855469 C 231.28125 234.046875 227.953125 227.953125 226.570312 222.855469 C 225.421875 218.625 225.140625 208.007812 226.042969 203.71875 C 229.242188 188.765625 240.527344 178.335938 256.804688 175.242188 C 262.089844 174.246094 274.382812 174.621094 279.574219 175.910156 Z M 279.574219 175.910156 " fill-opacity="1" fill-rule="nonzero"/></svg>